<?xml version="1.0" encoding="UTF-8"?>
<svg xmlns="http://www.w3.org/2000/svg" xmlns:xlink="http://www.w3.org/1999/xlink" width="2834.65pt" height="4535.43pt" viewBox="0 0 2834.65 4535.43" version="1.1">
<g id="surface1">
<path style=" stroke:none;fill-rule:nonzero;fill:rgb(25%,72.549438%,23.526001%);fill-opacity:1;" d="M 815.90625 2082.542969 C 813.75 2083.628906 811.324219 2084.261719 808.742188 2084.261719 C 802.765625 2084.261719 797.578125 2080.976563 794.847656 2076.113281 L 793.804688 2073.828125 L 750.3125 1978.394531 C 749.84375 1977.355469 749.554688 1976.183594 749.554688 1975.039063 C 749.554688 1970.640625 753.117188 1967.074219 757.515625 1967.074219 C 759.300781 1967.074219 760.953125 1967.667969 762.28125 1968.65625 L 813.601563 2005.195313 C 817.351563 2007.648438 821.832031 2009.085938 826.648438 2009.085938 C 829.519531 2009.085938 832.261719 2008.550781 834.816406 2007.625 L 1076.164063 1900.207031 C 1032.902344 1849.21875 961.65625 1815.898438 881.027344 1815.898438 C 749.089844 1815.898438 642.144531 1905.023438 642.144531 2014.976563 C 642.144531 2074.957031 674.320313 2128.953125 724.683594 2165.449219 C 728.722656 2168.332031 731.371094 2173.074219 731.371094 2178.421875 C 731.371094 2180.1875 730.992188 2181.808594 730.53125 2183.492188 C 726.507813 2198.496094 720.070313 2222.527344 719.765625 2223.652344 C 719.265625 2225.535156 718.484375 2227.5 718.484375 2229.472656 C 718.484375 2233.871094 722.046875 2237.433594 726.453125 2237.433594 C 728.175781 2237.433594 729.589844 2236.792969 731.046875 2235.953125 L 783.34375 2205.757813 C 787.28125 2203.488281 791.441406 2202.082031 796.035156 2202.082031 C 798.472656 2202.082031 800.832031 2202.457031 803.050781 2203.136719 C 827.449219 2210.152344 853.773438 2214.054688 881.027344 2214.054688 C 1012.960938 2214.054688 1119.921875 2124.917969 1119.921875 2014.976563 C 1119.921875 1981.671875 1110.050781 1950.3125 1092.707031 1922.722656 L 817.648438 2081.535156 Z M 815.90625 2082.542969 "/>
<path style=" stroke:none;fill-rule:nonzero;fill:rgb(25%,72.549438%,23.526001%);fill-opacity:1;" d="M 1377.355469 2044.257813 L 1374.183594 2055.519531 C 1371.53125 2064.917969 1369.1875 2073.214844 1367.160156 2081.414063 C 1364.582031 2069.324219 1361.007813 2055.8125 1357.800781 2043.886719 L 1336.511719 1963.613281 L 1336.140625 1962.191406 L 1322.183594 1962.191406 L 1298.375 2044.414063 C 1294.109375 2058.320313 1290.332031 2070.875 1287.679688 2081.859375 C 1285.640625 2073.175781 1283.1875 2063.492188 1280.613281 2053.324219 L 1257.523438 1963.613281 L 1257.136719 1962.191406 L 1241.03125 1962.191406 L 1279.71875 2108.679688 L 1280.089844 2110.117188 L 1293.820313 2110.117188 L 1318.699219 2026.191406 C 1323.039063 2011.882813 1326.3125 2000.636719 1328.675781 1990.8125 C 1330.792969 2001.1875 1333.734375 2012.582031 1337.421875 2026.089844 L 1358.925781 2108.691406 L 1359.296875 2110.117188 L 1373.234375 2110.117188 L 1416.824219 1964.660156 L 1417.574219 1962.191406 L 1401.390625 1962.191406 Z M 1377.355469 2044.257813 "/>
<path style=" stroke:none;fill-rule:nonzero;fill:rgb(25%,72.549438%,23.526001%);fill-opacity:1;" d="M 1436.277344 2044.773438 C 1440.199219 2022.742188 1454.664063 2014.855469 1467.039063 2014.855469 C 1474.910156 2014.855469 1481.214844 2017.21875 1485.820313 2021.90625 C 1492.613281 2028.800781 1494.152344 2038.804688 1494.421875 2044.773438 Z M 1468.308594 2000.84375 C 1439.363281 2000.84375 1419.910156 2024.03125 1419.910156 2058.546875 C 1419.910156 2090.652344 1440.042969 2112.230469 1470.003906 2112.230469 C 1488.835938 2112.230469 1499.53125 2107.398438 1503.257813 2105.335938 L 1505.550781 2104.054688 L 1498.765625 2092.304688 L 1497.167969 2093.039063 C 1491.871094 2095.496094 1484.65625 2098.003906 1471.277344 2098.003906 C 1449.335938 2098.003906 1436.328125 2083.570313 1435.4375 2058.371094 L 1509.628906 2058.371094 L 1510.117188 2056.183594 C 1510.589844 2053.980469 1510.589844 2052.375 1510.589844 2049.460938 C 1510.589844 2045.503906 1510.042969 2031.671875 1502.890625 2019.664063 C 1495.472656 2007.171875 1483.835938 2000.84375 1468.308594 2000.84375 "/>
<path style=" stroke:none;fill-rule:nonzero;fill:rgb(25%,72.549438%,23.526001%);fill-opacity:1;" d="M 1630.074219 2092.109375 L 1630.0625 2092.109375 C 1622.058594 2095.792969 1610.84375 2098.003906 1600.039063 2098.003906 C 1564.089844 2098.003906 1542.628906 2075.28125 1542.628906 2037.214844 C 1542.628906 1997.695313 1564.722656 1974.09375 1601.730469 1974.09375 C 1611.96875 1974.09375 1621.699219 1976.023438 1629.144531 1979.523438 L 1630.746094 1980.277344 L 1637.972656 1967.730469 L 1635.8125 1966.546875 C 1632.957031 1964.976563 1622.050781 1959.867188 1601.515625 1959.867188 C 1556.648438 1959.867188 1526.5 1990.859375 1526.5 2036.996094 C 1526.5 2092.523438 1564.296875 2112.230469 1596.664063 2112.230469 C 1614.898438 2112.230469 1629.113281 2108.371094 1636.347656 2104.757813 L 1638.707031 2103.566406 L 1631.664063 2091.375 Z M 1630.074219 2092.109375 "/>
<path style=" stroke:none;fill-rule:nonzero;fill:rgb(25%,72.549438%,23.526001%);fill-opacity:1;" d="M 1703.171875 2000.84375 C 1695.253906 2000.84375 1687.664063 2003.019531 1681.292969 2007.121094 C 1677.625 2009.226563 1674.210938 2012.128906 1671.300781 2015.597656 L 1671.300781 1959.867188 L 1655.609375 1959.867188 L 1655.609375 2110.113281 L 1671.300781 2110.113281 L 1671.300781 2045.453125 C 1671.300781 2041.574219 1671.476563 2039.074219 1672.414063 2036.234375 C 1676.8125 2023.898438 1688.335938 2015.277344 1700.425781 2015.277344 C 1722.261719 2015.277344 1725.523438 2035.367188 1725.523438 2047.351563 L 1725.523438 2110.113281 L 1741.226563 2110.113281 L 1741.226563 2046.300781 C 1741.226563 2003.03125 1709.519531 2000.84375 1703.171875 2000.84375 "/>
<path style=" stroke:none;fill-rule:nonzero;fill:rgb(25%,72.549438%,23.526001%);fill-opacity:1;" d="M 1881.386719 1980.390625 L 1865.671875 1980.390625 L 1865.671875 2004.148438 L 1848.566406 2004.148438 L 1848.566406 2016.972656 L 1865.671875 2016.972656 L 1865.671875 2078.195313 C 1865.671875 2090.386719 1867.953125 2098.914063 1872.601563 2104.191406 C 1876.8125 2109.582031 1883.566406 2112.4375 1892.113281 2112.4375 C 1898.046875 2112.4375 1903.191406 2111.507813 1907.382813 2109.671875 L 1909.914063 2108.566406 L 1903.316406 2097.148438 L 1901.949219 2097.449219 C 1899.574219 2097.953125 1896.695313 2098.210938 1893.390625 2098.210938 C 1884.976563 2098.210938 1881.386719 2092.792969 1881.386719 2080.09375 L 1881.386719 2016.972656 L 1910.324219 2016.972656 L 1910.324219 2004.148438 L 1881.386719 2004.148438 Z M 1881.386719 1980.390625 "/>
<path style=" stroke:none;fill-rule:nonzero;fill:rgb(25%,72.549438%,23.526001%);fill-opacity:1;" d="M 1995.21875 1976.371094 C 1998.292969 1975.855469 2004.066406 1975.152344 2012.5 1975.152344 C 2035.433594 1975.152344 2048.582031 1985.992188 2048.582031 2004.894531 C 2048.582031 2025.273438 2034.738281 2036.964844 2010.601563 2036.964844 C 2005.921875 2036.964844 2000.019531 2036.796875 1995.21875 2035.558594 Z M 2012.921875 1961.140625 C 2002.507813 1961.140625 1992.035156 1962.082031 1981.808594 1963.917969 L 1979.515625 1964.332031 L 1979.515625 2110.121094 L 1995.21875 2110.121094 L 1995.21875 2050.011719 C 1999.449219 2050.796875 2004.140625 2050.972656 2009.765625 2050.972656 C 2028.59375 2050.972656 2044.171875 2045.015625 2053.644531 2034.226563 C 2060.796875 2026.371094 2064.289063 2016.429688 2064.289063 2003.832031 C 2064.289063 1991.535156 2060.199219 1981.214844 2052.457031 1973.964844 C 2043.867188 1965.582031 2030.199219 1961.140625 2012.921875 1961.140625 "/>
<path style=" stroke:none;fill-rule:nonzero;fill:rgb(25%,72.549438%,23.526001%);fill-opacity:1;" d="M 2237.203125 2003.167969 L 2211.828125 2070.632813 C 2209.792969 2075.929688 2207.996094 2081.207031 2206.480469 2085.699219 C 2204.882813 2080.785156 2203.105469 2075.746094 2201.382813 2071.234375 L 2174.761719 2004.921875 L 2174.070313 2003.167969 L 2157.296875 2003.167969 L 2196.421875 2100.96875 C 2197.476563 2103.628906 2197.5 2104.347656 2197.5 2104.347656 C 2197.5 2105.046875 2196.949219 2106.472656 2196.445313 2107.730469 C 2191.398438 2119.707031 2184.796875 2127.742188 2180.171875 2132.363281 C 2173.8125 2138.484375 2166.9375 2141.636719 2163.394531 2142.957031 L 2160.546875 2144 L 2172.382813 2156.265625 C 2175.054688 2155.253906 2179.222656 2152.1875 2187.101563 2145.546875 C 2200.605469 2133.769531 2209.140625 2115.867188 2222.082031 2082.609375 L 2252.96875 2005.800781 L 2254.054688 2003.167969 Z M 2237.203125 2003.167969 "/>
<path style=" stroke:none;fill-rule:nonzero;fill:rgb(25%,72.549438%,23.526001%);fill-opacity:1;" d="M 1780.46875 2065.753906 C 1787.304688 2059.125 1800.132813 2055.769531 1818.605469 2055.769531 L 1820.515625 2055.78125 L 1820.546875 2074.808594 C 1820.546875 2076.140625 1820.394531 2078.121094 1819.636719 2080.03125 C 1816.601563 2088.933594 1807.824219 2098.429688 1792.28125 2098.429688 C 1784.203125 2098.429688 1774.78125 2093.621094 1774.78125 2080.09375 C 1774.78125 2074.25 1776.691406 2069.429688 1780.46875 2065.753906 M 1836.25 2083.253906 L 1836.25 2043.554688 C 1836.25 2015.609375 1823.15625 2000.84375 1798.402344 2000.84375 C 1787.46875 2000.84375 1775.75 2004.253906 1767.109375 2009.941406 L 1765.484375 2010.921875 L 1772.300781 2022.710938 L 1774.015625 2021.566406 C 1780.363281 2017.242188 1788.65625 2014.847656 1797.347656 2014.847656 L 1797.707031 2014.847656 C 1804.6875 2014.847656 1810.117188 2016.722656 1813.84375 2020.421875 C 1818.347656 2024.878906 1820.535156 2031.878906 1820.546875 2041.800781 C 1796.292969 2041.882813 1778.785156 2047.078125 1768.488281 2057.277344 C 1761.964844 2063.738281 1758.660156 2071.980469 1758.660156 2081.773438 C 1758.660156 2096.542969 1768.851563 2112.441406 1791.226563 2112.441406 C 1806.824219 2112.441406 1816.808594 2104.894531 1822.042969 2099.371094 L 1823.125 2110.117188 L 1838.199219 2110.117188 L 1837.683594 2106.894531 C 1836.421875 2099.082031 1836.25 2090.914063 1836.25 2083.253906 "/>
<path style=" stroke:none;fill-rule:nonzero;fill:rgb(25%,72.549438%,23.526001%);fill-opacity:1;" d="M 2129.921875 2074.808594 C 2129.921875 2076.148438 2129.769531 2078.144531 2129.023438 2080.03125 C 2125.980469 2088.921875 2117.203125 2098.433594 2101.664063 2098.433594 C 2093.589844 2098.433594 2084.164063 2093.621094 2084.164063 2080.09375 C 2084.164063 2074.25 2086.074219 2069.429688 2089.855469 2065.753906 C 2096.6875 2059.125 2109.523438 2055.769531 2127.980469 2055.769531 L 2129.910156 2055.78125 Z M 2145.625 2083.25 L 2145.625 2043.558594 C 2145.625 2015.609375 2132.542969 2000.84375 2107.785156 2000.84375 C 2097.472656 2000.84375 2086.230469 2003.972656 2077.710938 2009.207031 L 2076.132813 2010.199219 L 2082.875 2021.867188 L 2084.558594 2020.8125 C 2090.742188 2016.972656 2098.617188 2014.847656 2106.734375 2014.847656 L 2107.109375 2014.847656 C 2114.066406 2014.847656 2119.496094 2016.722656 2123.234375 2020.417969 C 2127.726563 2024.882813 2129.910156 2031.878906 2129.921875 2041.800781 C 2105.691406 2041.882813 2088.183594 2047.089844 2077.875 2057.277344 C 2071.355469 2063.742188 2068.050781 2071.976563 2068.050781 2081.777344 C 2068.050781 2096.539063 2078.242188 2112.4375 2100.601563 2112.4375 C 2116.210938 2112.4375 2126.203125 2104.902344 2131.429688 2099.367188 L 2132.503906 2110.117188 L 2147.597656 2110.117188 L 2147.078125 2106.894531 C 2145.800781 2099.050781 2145.625 2090.902344 2145.625 2083.25 "/>
</g>
</svg>
