<?xml version="1.0" encoding="utf-8"?>
<!-- Generator: Adobe Illustrator 15.0.0, SVG Export Plug-In . SVG Version: 6.00 Build 0)  -->
<!DOCTYPE svg PUBLIC "-//W3C//DTD SVG 1.1//EN" "http://www.w3.org/Graphics/SVG/1.1/DTD/svg11.dtd">
<svg version="1.1" id="Layer_1" xmlns="http://www.w3.org/2000/svg" xmlns:xlink="http://www.w3.org/1999/xlink" x="0px" y="0px"
	 width="1000px" height="500px" viewBox="0 0 1000 500" enable-background="new 0 0 1000 500" xml:space="preserve">
<g>
	<path fill="#1AAD19" d="M168.271,283.449c-1.291,0.652-2.744,1.029-4.289,1.029c-3.576,0-6.684-1.967-8.316-4.879l-0.625-1.367
		l-26.035-57.131c-0.281-0.621-0.455-1.324-0.455-2.008c0-2.633,2.135-4.766,4.768-4.766c1.068,0,2.057,0.354,2.852,0.945
		l30.723,21.875c2.244,1.467,4.926,2.328,7.809,2.328c1.721,0,3.361-0.32,4.891-0.877l144.479-64.303
		c-25.898-30.521-68.549-50.469-116.814-50.469c-78.982,0-143.004,53.354-143.004,119.174c0,35.906,19.262,68.23,49.412,90.078
		c2.418,1.727,4.002,4.564,4.002,7.766c0,1.059-0.227,2.025-0.504,3.035c-2.408,8.982-6.262,23.367-6.441,24.041
		c-0.301,1.127-0.77,2.305-0.77,3.484c0,2.633,2.133,4.766,4.77,4.766c1.033,0,1.879-0.385,2.752-0.887l31.307-18.076
		c2.355-1.357,4.848-2.201,7.596-2.201c1.461,0,2.873,0.227,4.201,0.633c14.605,4.201,30.363,6.535,46.68,6.535
		c78.977,0,143.008-53.357,143.008-119.174c0-19.936-5.908-38.711-16.291-55.227l-164.658,95.072L168.271,283.449z"/>
	<path fill="#514F4F" d="M469.703,328.424l-1.098,3.895c-0.916,3.248-1.727,6.117-2.426,8.951c-0.893-4.18-2.127-8.852-3.238-12.973
		l-7.357-27.748l-0.129-0.492h-4.824l-8.23,28.422c-1.473,4.807-2.779,9.146-3.695,12.943c-0.705-3.002-1.555-6.35-2.443-9.863
		l-7.982-31.01l-0.133-0.492h-5.566l13.373,50.637l0.129,0.496h4.746l8.6-29.01c1.5-4.945,2.631-8.832,3.447-12.23
		c0.732,3.586,1.75,7.527,3.023,12.195l7.434,28.553l0.129,0.492h4.816l15.068-50.279l0.26-0.854h-5.596L469.703,328.424z"/>
	<path fill="#514F4F" d="M501.143,313.418c-10.006,0-16.73,8.014-16.73,19.945c0,11.098,6.959,18.557,17.316,18.557
		c6.51,0,10.207-1.67,11.496-2.383l0.791-0.443l-2.344-4.061l-0.555,0.254c-1.83,0.848-4.324,1.715-8.949,1.715
		c-7.584,0-12.08-4.988-12.389-13.699h25.646l0.168-0.756c0.164-0.762,0.164-1.316,0.164-2.324c0-1.367-0.189-6.148-2.662-10.301
		C510.531,315.605,506.51,313.418,501.143,313.418 M490.07,328.604c1.355-7.617,6.355-10.344,10.633-10.344
		c2.721,0,4.9,0.818,6.492,2.438c2.35,2.385,2.881,5.842,2.975,7.906H490.07z"/>
	<path fill="#514F4F" d="M557.059,344.965h-0.004c-2.766,1.273-6.645,2.037-10.377,2.037c-12.426,0-19.846-7.854-19.846-21.012
		c0-13.662,7.637-21.818,20.432-21.818c3.537,0,6.9,0.666,9.475,1.877l0.553,0.26l2.498-4.336l-0.746-0.41
		c-0.988-0.543-4.758-2.311-11.855-2.311c-15.51,0-25.93,10.715-25.93,26.662c0,19.193,13.064,26.008,24.252,26.008
		c6.303,0,11.217-1.338,13.719-2.586l0.814-0.41l-2.434-4.215L557.059,344.965z"/>
	<path fill="#514F4F" d="M582.326,313.418c-2.736,0-5.359,0.752-7.562,2.17c-1.268,0.727-2.447,1.73-3.453,2.93v-19.264h-5.426
		v51.936h5.426v-22.352c0-1.342,0.061-2.205,0.385-3.188c1.52-4.264,5.504-7.244,9.682-7.244c7.549,0,8.676,6.945,8.676,11.088
		v21.695h5.428v-22.059C595.48,314.174,584.521,313.418,582.326,313.418"/>
	<path fill="#514F4F" d="M643.93,306.348h-5.432v8.213h-5.914v4.432h5.914v21.162c0,4.215,0.789,7.162,2.395,8.986
		c1.455,1.863,3.789,2.852,6.744,2.852c2.053,0,3.83-0.32,5.279-0.955l0.875-0.383l-2.281-3.947l-0.471,0.104
		c-0.822,0.174-1.818,0.266-2.959,0.266c-2.91,0-4.15-1.875-4.15-6.266v-21.818h10.002v-4.432H643.93V306.348z"/>
	<path fill="#514F4F" d="M689.398,299.693c-3.6,0-7.221,0.326-10.756,0.961l-0.793,0.143v50.395h5.428v-20.777
		c1.463,0.271,3.084,0.332,5.029,0.332c6.508,0,11.893-2.061,15.166-5.789c2.473-2.715,3.68-6.152,3.68-10.506
		c0-4.252-1.414-7.82-4.09-10.324C700.094,301.229,695.369,299.693,689.398,299.693 M683.277,304.957
		c1.064-0.178,3.059-0.42,5.975-0.42c7.926,0,12.473,3.746,12.473,10.281c0,7.045-4.787,11.084-13.129,11.084
		c-1.617,0-3.658-0.057-5.318-0.484V304.957z"/>
	<path fill="#514F4F" d="M766.924,314.221l-8.771,23.32c-0.703,1.832-1.324,3.656-1.848,5.207c-0.553-1.697-1.168-3.439-1.764-4.998
		l-9.201-22.924l-0.238-0.605h-5.799l13.525,33.807c0.363,0.92,0.371,1.168,0.371,1.178c0,0.232-0.189,0.725-0.363,1.16
		c-1.746,4.139-4.027,6.916-5.625,8.514c-2.199,2.117-4.576,3.205-5.799,3.662l-0.986,0.361l2.57,4.439l0.521-0.199
		c0.924-0.352,3.365-1.41,6.088-3.705c4.668-4.072,7.619-10.26,12.092-21.756l10.676-26.551l0.375-0.91H766.924z"/>
	<path fill="#514F4F" d="M628.326,341.904v-13.723c0-9.66-4.523-14.764-13.082-14.764c-3.779,0-7.83,1.178-10.816,3.145
		l-0.561,0.338l2.355,4.076l0.592-0.396c2.195-1.494,5.061-2.322,8.066-2.322h0.123c2.414,0,4.291,0.648,5.578,1.928
		c1.557,1.541,2.312,3.961,2.316,7.389c-8.383,0.029-14.436,1.824-17.992,5.352c-2.258,2.232-3.398,5.082-3.398,8.467
		c0,5.104,3.523,10.6,11.256,10.6c5.393,0,8.844-2.607,10.652-4.518l0.375,3.715h5.211l-0.18-1.113
		C628.387,347.375,628.326,344.553,628.326,341.904 M609.045,335.855c2.363-2.291,6.799-3.451,13.184-3.451l0.66,0.004l0.01,6.576
		c0,0.461-0.053,1.145-0.312,1.805c-1.051,3.078-4.084,6.361-9.457,6.361c-2.791,0-6.049-1.664-6.049-6.338
		C607.08,338.791,607.74,337.125,609.045,335.855"/>
	<path fill="#514F4F" d="M735.27,341.904v-13.723c0-9.66-4.523-14.764-13.08-14.764c-3.564,0-7.453,1.082-10.396,2.891l-0.547,0.344
		l2.332,4.031l0.582-0.363c2.139-1.328,4.859-2.062,7.664-2.062h0.129c2.406,0,4.283,0.648,5.574,1.926
		c1.555,1.543,2.311,3.963,2.314,7.393c-8.377,0.027-14.43,1.826-17.992,5.348c-2.254,2.234-3.396,5.082-3.396,8.471
		c0,5.102,3.523,10.598,11.252,10.598c5.396,0,8.85-2.605,10.656-4.518l0.371,3.715h5.217l-0.178-1.113
		C735.328,347.365,735.27,344.549,735.27,341.904 M729.842,338.984c0,0.465-0.055,1.152-0.312,1.807
		c-1.051,3.072-4.086,6.359-9.457,6.359c-2.791,0-6.049-1.662-6.049-6.338c0-2.021,0.66-3.688,1.967-4.957
		c2.361-2.291,6.799-3.451,13.18-3.451l0.668,0.004L729.842,338.984z"/>
	<rect x="597.832" y="190.488" fill="#514F4F" width="72.123" height="6.471"/>
	<rect x="597.832" y="210.689" fill="#514F4F" width="72.123" height="6.973"/>
	<path fill="#514F4F" d="M599.66,270.443h68.471v-39.041H599.66V270.443z M606.631,237.867h54.525v26.1h-54.525V237.867z"/>
	<path fill="#514F4F" d="M578.033,274.496v-89.818c4.09-8.812,7.709-18.309,10.664-27.928l-6.449-3.73
		c-6.367,22.439-15.701,42.832-27.41,59.896l3.846,6.611c4.059-6.002,8.344-13.061,12.377-20.459v75.428H578.033z"/>
	<path fill="#514F4F" d="M843.022,274.496v-89.818c4.09-8.812,7.709-18.309,10.664-27.928l-6.449-3.73
		c-6.367,22.439-15.697,42.832-27.41,59.896l3.846,6.611c4.059-6.002,8.344-13.061,12.377-20.459v75.428H843.022z"/>
	<path fill="#514F4F" d="M677.533,169.777h-42.371l4.488-2.582l0.162-0.096l-0.076-0.164c-0.514-1.203-1.865-4.033-3.299-7.031
		c-1.33-2.793-2.701-5.678-3.361-7.158l-0.086-0.207l-6.43,3.709l0.096,0.174c2.301,4.332,4.273,8.295,6.047,12.137
		c0.248,0.518,0.406,0.93,0.461,1.219h-42.406v6.977h86.775V169.777z"/>
	<polygon fill="#514F4F" points="490.576,164.482 484.109,164.482 484.109,187.217 471.891,187.217 471.891,154.887 
		465.422,154.887 465.422,187.217 452.697,187.217 452.697,164.482 446.23,164.482 446.23,193.686 490.576,193.686 	"/>
	<rect x="448.25" y="206.404" fill="#514F4F" width="39.297" height="6.471"/>
	<path fill="#514F4F" d="M456.738,237.926v-5.857h19.795v14.434c-0.244,5.037-0.494,6.57-2.225,8.977l-0.08,0.109l3.975,6.881
		l0.188-0.15c3.48-2.789,9.422-7.883,17.656-15.133l0.125-0.104l-3.121-5.408l-0.125-0.213l-9.922,8.51V225.6h-33.238v9.818
		c0.941,13.438-2.416,23.055-9.973,28.568l-0.145,0.105l3.598,6.242l0.121,0.209l0.186-0.154
		C452.969,262.637,457.408,251.709,456.738,237.926"/>
	<path fill="#514F4F" d="M414.277,185.451l3.902,6.76c10.039-10.047,18.611-22.117,24.971-35.164l-6.031-3.49
		C430.885,166.277,423.059,177.211,414.277,185.451"/>
	<path fill="#514F4F" d="M412.51,226.086l3.584,6.209l0.143,0.254l0.186-0.221c3.822-4.459,7.561-9.164,11.117-13.988v56.154h6.469
		v-66.818c2.926-5.207,5.758-11.021,8.41-17.289l0.066-0.16l-6.254-3.607l-0.088,0.221c-5.98,14.953-13.904,28.121-23.537,39.135
		L412.51,226.086z"/>
	<path fill="#514F4F" d="M514.1,233.859c-4.258-10.988-7.42-25.928-9.404-44.412c0.646-1.936,1.467-3.912,2.445-5.873h17.334
		C523.139,204.658,519.645,221.574,514.1,233.859 M538.023,183.574v-6.471h-28.711h0.004c2.486-7.51,5.344-16.248,6.305-23.732
		l-6.752-0.01c-4.199,19.684-10.607,36.766-18.863,50.24l4.086,7.074l2.998-5.992c1.127-1.973,2.039-3.639,2.727-4.967
		c2.023,17.438,5.555,31.469,10.502,41.723c-4.75,8.215-12.057,16.746-21.723,25.363l-0.123,0.107l3.725,6.457l0.135,0.219
		l0.182-0.174c10.238-9.59,17.324-17.988,21.072-24.967c4.268,7.605,11.494,16.814,19.891,25.336l0.184,0.188l3.832-6.623
		l0.078-0.143l-0.115-0.111c-9.002-8.596-16.141-17.52-20.109-25.131c7.332-13.398,11.908-33.041,13.598-58.387H538.023z"/>
	<path fill="#514F4F" d="M900.13,265.547c-1.426,0-2.756-0.008-4.037-0.016v6.971c2.766,0,4.775-0.025,6.092-0.025
		c6.836,0,10.578-1.463,13.5-4.385c2.836-2.842,4.195-7.188,4.029-12.902v-64.793h18.742v-6.953h-18.742v-29.885h-6.992v29.885
		h-57.539v6.953h57.539v64.811C912.722,262.248,908.353,265.547,900.13,265.547"/>
	<path fill="#514F4F" d="M884.526,242.479l6.926-4.041c-3.701-7.549-8.67-17.562-14.812-29.863l-6.312,3.688
		C874.575,220.564,879.329,230.686,884.526,242.479"/>
	<path fill="#514F4F" d="M770.311,227.471c-4.475,5.107-10.102,10.895-18.197,16.682c-19.734-14.938-28.215-31.297-31.102-38.16
		h62.688C782.143,210.174,778.406,218.236,770.311,227.471 M811.655,176.715v-6.895h-54.87v-17.49h-7.064v17.49H694.85v6.895h54.871
		v22.975h-35.672l0.004,4.803v0.668c0.082,0.223,0.189,0.5,0.322,0.832c2.146,5.387,11.004,24.613,32.051,41.975
		c-11.324,7.029-26.861,13.83-49.178,19.164l4.074,7.055c21.322-5.174,37.834-13.17,50.582-21.959
		c12.395,9.09,30.047,17.262,50.576,22.068l3.427-6.342c-19.63-4.76-36.524-11.967-48.325-19.879
		c21.494-16.668,30.504-34.984,33.307-42.082c0.666-1.684,0.988-2.746,1.041-2.992l-5.732-3.311h-29.412v-22.975H811.655z"/>
</g>
<rect x="0.085" y="0" fill="none" width="1000" height="500"/>
</svg>
